<?xml version="1.0" encoding="iso-8859-1"?>
<!-- Generator: Adobe Illustrator 19.0.0, SVG Export Plug-In . SVG Version: 6.00 Build 0)  -->
<svg version="1.1" id="Capa_1" xmlns="http://www.w3.org/2000/svg" xmlns:xlink="http://www.w3.org/1999/xlink" x="0px" y="0px"
	 viewBox="0 0 512 512" style="enable-background:new 0 0 512 512;" xml:space="preserve">
<g>
	<g>
		<path d="M256,0C114.516,0,0,114.497,0,256c0,141.483,114.497,256,256,256c141.483,0,256-114.497,256-256
			C512,114.517,397.503,0,256,0z M256,482C131.098,482,30,380.922,30,256C30,131.098,131.078,30,256,30
			c124.902,0,226,101.078,226,226C482,380.902,380.922,482,256,482z"/>
	</g>
</g>
<g>
	<g>
		<path d="M256,100c-86.3,0-156,70.234-156,156c0,85.496,69.43,156,156,156c86.422,0,156-70.333,156-156
			C412,170.302,342.344,100,256,100z M271,130.897c34.992,4.169,65.629,22.73,85.8,49.586l-61.607,35.569
			c-6.664-6.539-14.95-11.421-24.193-13.995V130.897z M241,130.896v71.16c-9.242,2.573-17.529,7.456-24.193,13.995L155.2,180.483
			C175.371,153.627,206.008,135.066,241,130.896z M140.163,305.559C133.627,290.339,130,273.586,130,256s3.627-34.339,10.163-49.558
			l61.606,35.569C200.615,246.483,200,251.171,200,256s0.615,9.517,1.769,13.99L140.163,305.559z M241,381.103
			c-34.992-4.169-65.629-22.73-85.8-49.586l61.607-35.569c6.664,6.539,14.95,11.422,24.193,13.995V381.103z M230,256
			c0-14.337,11.664-26,26-26c14.337,0,26,11.663,26,26c0,14.337-11.663,26-26,26C241.664,282,230,270.337,230,256z M271,381.104
			v-71.16c9.243-2.573,17.529-7.456,24.193-13.995l61.607,35.569C336.629,358.373,305.992,376.934,271,381.104z M310.231,269.99
			c1.155-4.473,1.769-9.161,1.769-13.99c0-4.829-0.615-9.517-1.769-13.99l61.606-35.568C378.373,221.661,382,238.414,382,256
			s-3.627,34.339-10.163,49.558L310.231,269.99z"/>
	</g>
</g>
<g>
</g>
<g>
</g>
<g>
</g>
<g>
</g>
<g>
</g>
<g>
</g>
<g>
</g>
<g>
</g>
<g>
</g>
<g>
</g>
<g>
</g>
<g>
</g>
<g>
</g>
<g>
</g>
<g>
</g>
</svg>
